<svg width="707" height="209" viewBox="0 0 707 209" fill="none" xmlns="http://www.w3.org/2000/svg">
<path d="M345 137V68.75H365.156C372.469 68.75 378.016 70.2656 381.797 73.2969C385.578 76.2969 387.469 80.7344 387.469 86.6094C387.469 90.1406 386.5 93.2188 384.562 95.8438C382.656 98.4375 380.031 100.297 376.688 101.422C380.656 102.297 383.844 104.25 386.25 107.281C388.688 110.312 389.906 113.812 389.906 117.781C389.906 123.812 387.953 128.531 384.047 131.938C380.172 135.312 374.766 137 367.828 137H345ZM350.766 104.188V132.125H368.062C373 132.125 376.906 130.875 379.781 128.375C382.688 125.844 384.141 122.344 384.141 117.875C384.141 113.656 382.75 110.328 379.969 107.891C377.219 105.422 373.406 104.188 368.531 104.188H350.766ZM350.766 99.3594H366.516C371.328 99.2656 375.047 98.1406 377.672 95.9844C380.328 93.7969 381.656 90.625 381.656 86.4688C381.656 82.0938 380.281 78.875 377.531 76.8125C374.812 74.7188 370.688 73.6719 365.156 73.6719H350.766V99.3594ZM435.188 130.578C431.812 135.484 426.422 137.938 419.016 137.938C413.609 137.938 409.5 136.375 406.688 133.25C403.875 130.094 402.438 125.438 402.375 119.281V86.2812H407.953V118.578C407.953 128.234 411.859 133.062 419.672 133.062C427.797 133.062 432.938 129.703 435.094 122.984V86.2812H440.719V137H435.281L435.188 130.578ZM464.062 73.2969V86.2812H474.562V90.875H464.062V124.672C464.062 127.484 464.562 129.578 465.562 130.953C466.594 132.328 468.297 133.016 470.672 133.016C471.609 133.016 473.125 132.859 475.219 132.547L475.453 137.141C473.984 137.672 471.984 137.938 469.453 137.938C465.609 137.938 462.812 136.828 461.062 134.609C459.312 132.359 458.438 129.062 458.438 124.719V90.875H449.109V86.2812H458.438V73.2969H464.062ZM494.906 73.2969V86.2812H505.406V90.875H494.906V124.672C494.906 127.484 495.406 129.578 496.406 130.953C497.438 132.328 499.141 133.016 501.516 133.016C502.453 133.016 503.969 132.859 506.062 132.547L506.297 137.141C504.828 137.672 502.828 137.938 500.297 137.938C496.453 137.938 493.656 136.828 491.906 134.609C490.156 132.359 489.281 129.062 489.281 124.719V90.875H479.953V86.2812H489.281V73.2969H494.906ZM536.672 137.938C532.359 137.938 528.453 136.875 524.953 134.75C521.484 132.625 518.781 129.672 516.844 125.891C514.906 122.078 513.938 117.812 513.938 113.094V111.078C513.938 106.203 514.875 101.812 516.75 97.9062C518.656 94 521.297 90.9375 524.672 88.7188C528.047 86.4688 531.703 85.3438 535.641 85.3438C541.797 85.3438 546.672 87.4531 550.266 91.6719C553.891 95.8594 555.703 101.594 555.703 108.875V112.016H519.516V113.094C519.516 118.844 521.156 123.641 524.438 127.484C527.75 131.297 531.906 133.203 536.906 133.203C539.906 133.203 542.547 132.656 544.828 131.562C547.141 130.469 549.234 128.719 551.109 126.312L554.625 128.984C550.5 134.953 544.516 137.938 536.672 137.938ZM535.641 90.125C531.422 90.125 527.859 91.6719 524.953 94.7656C522.078 97.8594 520.328 102.016 519.703 107.234H550.125V106.625C549.969 101.75 548.578 97.7812 545.953 94.7188C543.328 91.6562 539.891 90.125 535.641 90.125ZM590.062 91.0625C588.875 90.8438 587.609 90.7344 586.266 90.7344C582.766 90.7344 579.797 91.7188 577.359 93.6875C574.953 95.625 573.234 98.4531 572.203 102.172V137H566.625V86.2812H572.109L572.203 94.3438C575.172 88.3438 579.938 85.3438 586.5 85.3438C588.062 85.3438 589.297 85.5469 590.203 85.9531L590.062 91.0625ZM630.234 70.3438C625.609 69.4062 621.766 68.9375 618.703 68.9375C615.484 68.9375 613 69.9062 611.25 71.8438C609.5 73.75 608.625 76.4688 608.625 80V86.2812H620.719V90.875H608.625V137H603V90.875H594.609V86.2812H603V79.8125C603.031 74.6875 604.391 70.7812 607.078 68.0938C609.766 65.375 613.516 64.0156 618.328 64.0156C622.203 64.0156 628.031 64.9688 635.812 66.875V137H630.234V70.3438ZM667.359 128.938L682.172 86.2812H688.219L666.562 145.625L665.438 148.25C662.656 154.406 658.359 157.484 652.547 157.484C651.203 157.484 649.766 157.266 648.234 156.828L648.188 152.188L651.094 152.469C653.844 152.469 656.062 151.781 657.75 150.406C659.469 149.062 660.922 146.734 662.109 143.422L664.594 136.578L645.469 86.2812H651.609L667.359 128.938Z" fill="#6A00A6"/>
<g clip-path="url(#clip0)">
<path d="M148.191 93.6126C146.922 74.6279 138.156 59.1893 126.088 47.5541C137.545 59.0365 146.126 75.046 148.32 96.8289C148.304 95.7273 148.264 94.6659 148.191 93.6126Z" fill="#6A00A6"/>
<path d="M148.328 97.1425C148.328 99.7719 147.741 119.046 135.665 146.088C143.17 130.303 148.553 113.265 148.328 97.1425Z" fill="#6A00A6"/>
<path d="M16.2461 21.3406C11.521 17.7747 6.98592 13.9635 2.65948 9.92249C6.95091 14.0029 11.4883 17.8161 16.2461 21.3406V21.3406Z" fill="#6A00A6"/>
<path d="M106.234 33.0885C88.4375 23.4393 68.7606 19.8129 55.2624 22.8524C54.3464 23.0614 53.4305 23.2383 52.5306 23.3991C65.9163 21.0029 87.1198 23.1177 106.234 33.0885Z" fill="#6A00A6"/>
<path d="M52.2252 23.4393C48.8676 24.0024 45.4653 24.2554 42.0614 24.1952C45.4657 24.2687 48.8692 24.0156 52.2252 23.4393V23.4393Z" fill="#6A00A6"/>
<path d="M95.1786 58.3691C116.278 68.1389 129.896 79.1389 137.762 86.8582C125.58 74.6493 111.109 64.9678 95.1786 58.3691Z" fill="#6A00A6"/>
<path d="M128.908 102.723C128.908 102.723 126.498 113.715 120.833 132.297C126.731 115.275 130.708 102.249 128.908 102.723Z" fill="#6A00A6"/>
<path d="M92.8887 207.898C92.8887 207.898 65.4342 118.805 89.5382 110.764C111.883 103.31 126.626 102.771 128.659 102.723C131.568 101.766 148.255 96.837 148.32 96.8209H146.456C24.4575 112.372 1.89616 9.18274 1.89616 9.18274C1.89616 9.18274 -3.1255 20.9788 3.16564 31.03C9.45678 41.0811 3.70396 84.7675 67.5795 111.705C68.0857 111.705 51.1084 151.105 92.8887 209C92.8887 209 98.5129 202.905 106.234 192.918C102.185 197.871 97.7577 202.857 92.8887 207.898Z" fill="#6A00A6"/>
<path d="M128.643 102.731H128.892C130.692 102.257 126.715 115.283 120.817 132.306C112.905 157.998 103.576 183.231 92.8726 207.89C97.7416 202.849 102.169 197.863 106.218 192.942C118.085 178.714 127.984 162.951 135.649 146.08C147.701 119.038 148.288 99.7639 148.312 97.1345V96.8289C148.255 96.8289 131.568 101.774 128.643 102.731Z" fill="#A200FF"/>
<path d="M16.2461 21.3406C28.4724 30.3059 41.5264 38.0819 55.2302 44.5629V44.5629C68.9497 47.8648 82.3175 52.4884 95.1464 58.3691C111.076 64.9678 125.548 74.6493 137.73 86.8582C140.949 89.8967 143.87 93.2354 146.456 96.8289H148.328C146.134 75.0782 137.553 59.0365 126.096 47.5862C120.253 41.7782 113.558 36.8974 106.242 33.1126C87.1278 23.1418 65.9244 21.0512 52.5627 23.4152H52.2574C48.9014 23.9914 45.4979 24.2445 42.0936 24.171L40.6875 24.1148H39.884C18.1503 22.7719 1.89618 9.18274 1.89618 9.18274L2.69964 9.9225C7.01306 13.9624 11.5347 17.7736 16.2461 21.3406V21.3406Z" fill="#A200FF"/>
<path d="M128.908 102.723H128.643C126.61 102.723 111.867 103.302 89.5222 110.764C65.4182 118.805 92.8726 207.898 92.8726 207.898C103.576 183.239 112.905 158.006 120.817 132.314C126.514 113.715 128.908 102.723 128.908 102.723Z" fill="#8B00DA"/>
<path d="M146.456 96.829C143.878 93.2365 140.964 89.8979 137.754 86.8582C129.896 79.1389 116.278 68.1389 95.1706 58.3692C82.3442 52.4889 68.9792 47.8653 55.2624 44.5629V44.5629C41.5589 38.0845 28.5049 30.3112 16.2783 21.3487C11.5205 17.8241 6.98307 14.0109 2.69165 9.93056L1.88818 9.1908C1.88818 9.1908 24.4575 112.372 146.456 96.829Z" fill="#8B00DA"/>
<path d="M170.801 93.0095C172.07 74.0249 180.868 58.5863 192.92 46.9752C181.463 58.4496 172.882 74.4671 170.68 96.2178C170.696 95.1243 170.728 94.0629 170.801 93.0095Z" fill="#6A00A6"/>
<path d="M170.672 96.5395C170.672 99.1689 171.251 118.443 183.335 145.485C175.83 129.7 170.423 112.662 170.672 96.5395Z" fill="#6A00A6"/>
<path d="M302.754 20.7376C307.477 17.1724 312.009 13.3611 316.332 9.31946C312.044 13.3998 307.509 17.213 302.754 20.7376V20.7376Z" fill="#6A00A6"/>
<path d="M212.766 32.5014C230.554 22.8523 250.239 19.2259 263.738 22.2653C264.654 22.4744 265.561 22.6513 266.469 22.8121C253.084 20.44 231.88 22.5146 212.766 32.5014Z" fill="#6A00A6"/>
<path d="M266.775 22.8524C270.132 23.4161 273.535 23.6691 276.939 23.6082C273.534 23.682 270.131 23.4289 266.775 22.8524V22.8524Z" fill="#6A00A6"/>
<path d="M223.813 57.7661C202.722 67.5358 189.104 78.5358 181.23 86.2551C193.412 74.0462 207.883 64.3647 223.813 57.7661V57.7661Z" fill="#6A00A6"/>
<path d="M190.084 102.12C190.084 102.12 192.494 113.112 198.167 131.694C192.269 114.672 188.284 101.653 190.084 102.12Z" fill="#6A00A6"/>
<path d="M226.111 207.287C226.111 207.287 253.558 118.202 229.454 110.161C207.109 102.707 192.374 102.168 190.333 102.12C187.424 101.163 170.736 96.2339 170.672 96.2179H172.544C294.534 111.761 317.104 8.57166 317.104 8.57166C317.104 8.57166 322.125 20.3677 315.826 30.4189C309.527 40.4701 315.296 84.1565 251.42 111.094C250.914 111.094 267.892 150.494 226.111 208.389C226.111 208.389 220.487 202.294 212.766 192.307C216.815 197.268 221.242 202.254 226.111 207.287Z" fill="#6A00A6"/>
<path d="M190.333 102.128H190.084C188.284 101.654 192.269 114.68 198.167 131.702C206.078 157.395 215.407 182.629 226.111 207.287C221.242 202.254 216.815 197.268 212.766 192.347C200.896 178.121 190.997 162.358 183.335 145.485C171.283 118.443 170.688 99.1689 170.672 96.5395V96.2259C170.736 96.242 187.424 101.171 190.333 102.128Z" fill="#A200FF"/>
<path d="M302.754 20.7376C290.526 29.6982 277.472 37.4714 263.77 43.9518C250.048 47.2551 236.678 51.8787 223.846 57.7581C207.916 64.3567 193.444 74.0382 181.262 86.2471C178.052 89.2868 175.138 92.6254 172.56 96.2179H170.688C172.89 74.4671 181.471 58.4255 192.928 46.9752C198.768 41.1635 205.464 36.2822 212.782 32.5015C231.896 22.5307 253.1 20.4401 266.453 22.8041H266.759C270.115 23.3806 273.518 23.6337 276.922 23.56L278.329 23.5037H279.132C300.826 22.1689 317.08 8.57971 317.08 8.57971L316.276 9.31948C311.971 13.3596 307.458 17.1709 302.754 20.7376V20.7376Z" fill="#A200FF"/>
<path d="M190.084 102.12H190.333C192.374 102.12 207.109 102.699 229.454 110.161C253.558 118.202 226.111 207.287 226.111 207.287C215.407 182.629 206.078 157.395 198.167 131.702C192.486 113.112 190.084 102.12 190.084 102.12Z" fill="#8B00DA"/>
<path d="M172.544 96.2259C175.122 92.6334 178.036 89.2948 181.246 86.2551C189.104 78.5358 202.722 67.5358 223.829 57.7661C236.662 51.8867 250.032 47.2631 263.754 43.9598C277.456 37.4794 290.51 29.7062 302.738 20.7456C307.493 17.221 312.028 13.4078 316.316 9.32747L317.12 8.58771C317.12 8.58771 294.535 111.769 172.544 96.2259Z" fill="#8B00DA"/>
<path d="M158.484 93.8216C161.736 93.8216 164.373 91.1828 164.373 87.9276C164.373 84.6725 161.736 82.0336 158.484 82.0336C155.231 82.0336 152.594 84.6725 152.594 87.9276C152.594 91.1828 155.231 93.8216 158.484 93.8216Z" fill="#8B00DA"/>
<path d="M200.344 8.84503C202.785 8.84503 204.763 6.865 204.763 4.42251C204.763 1.98003 202.785 0 200.344 0C197.904 0 195.925 1.98003 195.925 4.42251C195.925 6.865 197.904 8.84503 200.344 8.84503Z" fill="#8B00DA"/>
<path d="M158.484 158.221C160.831 158.221 162.734 143.224 162.734 124.723C162.734 106.222 160.831 91.2244 158.484 91.2244C156.136 91.2244 154.233 106.222 154.233 124.723C154.233 143.224 156.136 158.221 158.484 158.221Z" fill="#8B00DA"/>
<path d="M160.171 87.3326C160.171 39.5453 178.136 0.876465 200.344 0.876465" stroke="#8B00DA" stroke-width="0.75" stroke-miterlimit="10"/>
<path d="M116.776 10.212C119.216 10.212 121.195 8.23195 121.195 5.78946C121.195 3.34697 119.216 1.36694 116.776 1.36694C114.335 1.36694 112.357 3.34697 112.357 5.78946C112.357 8.23195 114.335 10.212 116.776 10.212Z" fill="#8B00DA"/>
<path d="M156.941 88.6995C156.941 40.9123 138.975 2.24341 116.768 2.24341" stroke="#8B00DA" stroke-width="0.75" stroke-miterlimit="10"/>
</g>
<defs>
<clipPath id="clip0">
<rect width="319" height="209" fill="white"/>
</clipPath>
</defs>
</svg>
